<svg width="264" height="121" viewBox="0 0 264 121" fill="none" xmlns="http://www.w3.org/2000/svg">
<path fill-rule="evenodd" clip-rule="evenodd" d="M277.903 151.548C277.903 158.114 272.58 163.437 266.014 163.437L-2.97164 163.437C-9.53768 163.437 -14.8605 158.114 -14.8605 151.548L-14.8605 45.2913C-14.8605 38.7252 -9.53768 33.4024 -2.97164 33.4024H113.002C116.945 33.4024 120.632 31.4476 122.844 28.1838L138.042 5.76047C140.254 2.49665 143.94 0.54187 147.883 0.54187L263.811 0.54187C270.377 0.54187 275.7 5.8647 275.7 12.4307V32.3011C275.7 32.9093 276.193 33.4024 276.802 33.4024V33.4024C277.41 33.4024 277.903 33.8955 277.903 34.5037V151.548Z" fill="#4C55D2"/>
<path d="M231.851 24.9894V24.4746L231.187 24.8599L231.629 25.6304L232.296 25.2451L231.851 24.9894V24.9894Z" fill="#F9E757"/>
<path d="M232.296 25.2451L231.629 25.6304L231.187 24.8599L231.851 24.4746V24.9894L232.296 25.2451Z" fill="#F9E757"/>
<path d="M247.591 15.6437L239.61 11.0372C239.474 10.9575 239.304 10.9575 239.165 11.0372L231.187 15.6437C231.048 15.7234 230.965 15.8695 230.965 16.0289V25.2453C230.965 25.4047 231.048 25.5508 231.187 25.6305L239.165 30.237C239.235 30.2769 239.311 30.2968 239.387 30.2968C239.464 30.2968 239.543 30.2769 239.61 30.237L247.591 25.6305C247.73 25.5508 247.813 25.4047 247.813 25.2453V16.0289C247.813 15.8695 247.73 15.7234 247.591 15.6437ZM232.297 25.2453L239.387 21.1502L246.478 25.2453L239.387 29.3403L232.297 25.2453L231.629 25.6305L231.187 24.86L231.852 24.4747V16.288L239.387 11.9372L246.478 16.0289L231.852 24.4747V24.9895L232.297 25.2453V25.2453Z" fill="#F9E757"/>
<path d="M151.534 15.7543V24.2065H149.798V15.7543H151.534ZM154.134 15.7543V17.1185H147.238V15.7543H154.134ZM156.288 19.2954V24.2065H154.616V17.9254H156.189L156.288 19.2954ZM158.18 17.8847L158.151 19.4347C158.07 19.4231 157.971 19.4134 157.855 19.4057C157.743 19.3941 157.641 19.3883 157.548 19.3883C157.312 19.3883 157.107 19.4192 156.932 19.4812C156.762 19.5392 156.619 19.6263 156.503 19.7424C156.391 19.8585 156.305 19.9997 156.247 20.1662C156.193 20.3326 156.162 20.5222 156.155 20.7351L155.818 20.6306C155.818 20.2242 155.858 19.8507 155.94 19.5102C156.021 19.1657 156.139 18.8658 156.294 18.6104C156.452 18.355 156.646 18.1576 156.874 18.0183C157.103 17.8789 157.364 17.8093 157.658 17.8093C157.751 17.8093 157.846 17.817 157.942 17.8325C158.039 17.8441 158.119 17.8615 158.18 17.8847ZM160.735 17.9254V24.2065H159.057V17.9254H160.735ZM158.953 16.2883C158.953 16.0445 159.038 15.8433 159.208 15.6846C159.378 15.5259 159.607 15.4466 159.893 15.4466C160.176 15.4466 160.402 15.5259 160.572 15.6846C160.746 15.8433 160.833 16.0445 160.833 16.2883C160.833 16.5322 160.746 16.7334 160.572 16.8921C160.402 17.0507 160.176 17.1301 159.893 17.1301C159.607 17.1301 159.378 17.0507 159.208 16.8921C159.038 16.7334 158.953 16.5322 158.953 16.2883ZM163.881 15.2899V24.2065H162.203V15.2899H163.881ZM166.894 15.2899V24.2065H165.222V15.2899H166.894ZM166.656 20.8454H166.197C166.201 20.408 166.259 20.0055 166.371 19.6379C166.484 19.2664 166.644 18.9451 166.853 18.6742C167.062 18.3995 167.312 18.1866 167.602 18.0357C167.896 17.8847 168.221 17.8093 168.577 17.8093C168.887 17.8093 169.168 17.8538 169.419 17.9428C169.675 18.0279 169.893 18.1673 170.075 18.3608C170.261 18.5504 170.404 18.8 170.505 19.1096C170.605 19.4192 170.656 19.7946 170.656 20.2358V24.2065H168.972V20.2242C168.972 19.9456 168.932 19.7269 168.85 19.5682C168.773 19.4057 168.659 19.2915 168.508 19.2257C168.361 19.1561 168.179 19.1212 167.962 19.1212C167.722 19.1212 167.517 19.1657 167.347 19.2548C167.18 19.3438 167.047 19.4676 166.946 19.6263C166.846 19.7811 166.772 19.963 166.726 20.172C166.679 20.3809 166.656 20.6054 166.656 20.8454ZM175.317 22.7901V19.992C175.317 19.7908 175.284 19.6185 175.218 19.4753C175.153 19.3283 175.05 19.2141 174.911 19.1328C174.775 19.0516 174.599 19.0109 174.383 19.0109C174.197 19.0109 174.036 19.0438 173.901 19.1096C173.765 19.1715 173.661 19.2625 173.587 19.3825C173.514 19.4986 173.477 19.636 173.477 19.7946H171.805C171.805 19.5276 171.867 19.2741 171.991 19.0342C172.115 18.7942 172.295 18.5833 172.531 18.4014C172.767 18.2156 173.047 18.0705 173.372 17.966C173.701 17.8615 174.069 17.8093 174.475 17.8093C174.963 17.8093 175.397 17.8906 175.776 18.0531C176.155 18.2156 176.453 18.4595 176.67 18.7845C176.89 19.1096 177.001 19.516 177.001 20.0036V22.6914C177.001 23.0358 177.022 23.3183 177.065 23.5389C177.107 23.7556 177.169 23.9453 177.25 24.1078V24.2065H175.561C175.48 24.0362 175.418 23.8234 175.375 23.568C175.337 23.3087 175.317 23.0494 175.317 22.7901ZM175.538 20.3809L175.549 21.3272H174.615C174.394 21.3272 174.203 21.3523 174.04 21.4026C173.878 21.453 173.744 21.5246 173.639 21.6174C173.535 21.7064 173.458 21.8109 173.407 21.9309C173.361 22.0509 173.338 22.1825 173.338 22.3257C173.338 22.4688 173.371 22.5985 173.436 22.7146C173.502 22.8268 173.597 22.9158 173.721 22.9816C173.845 23.0436 173.99 23.0745 174.156 23.0745C174.408 23.0745 174.626 23.0242 174.812 22.9236C174.998 22.823 175.141 22.6991 175.242 22.5521C175.346 22.405 175.4 22.2657 175.404 22.1341L175.845 22.8423C175.784 23.001 175.698 23.1655 175.59 23.3357C175.486 23.506 175.352 23.6666 175.189 23.8176C175.027 23.9646 174.831 24.0865 174.603 24.1833C174.375 24.2762 174.104 24.3226 173.79 24.3226C173.392 24.3226 173.03 24.2433 172.705 24.0846C172.384 23.9221 172.128 23.6995 171.939 23.417C171.753 23.1306 171.66 22.8055 171.66 22.4418C171.66 22.1128 171.722 21.8206 171.846 21.5652C171.97 21.3098 172.151 21.095 172.391 20.9208C172.635 20.7428 172.939 20.6093 173.303 20.5203C173.667 20.4274 174.088 20.3809 174.568 20.3809H175.538ZM187.026 22.8481V24.2065H182.527V22.8481H187.026ZM183.096 15.7543V24.2065H181.354V15.7543H183.096ZM186.44 19.1967V20.5203H182.527V19.1967H186.44ZM187.02 15.7543V17.1185H182.527V15.7543H187.02ZM189.284 17.9254L190.323 19.8353L191.392 17.9254H193.174L191.397 20.9963L193.255 24.2065H191.467L190.335 22.1863L189.203 24.2065H187.415L189.273 20.9963L187.496 17.9254H189.284ZM195.658 19.1328V26.6214H193.986V17.9254H195.536L195.658 19.1328ZM199.635 20.9963V21.1182C199.635 21.5749 199.581 21.9986 199.472 22.3895C199.368 22.7804 199.213 23.121 199.008 23.4112C198.803 23.6976 198.547 23.9221 198.242 24.0846C197.94 24.2433 197.591 24.3226 197.197 24.3226C196.813 24.3226 196.481 24.2452 196.198 24.0904C195.916 23.9356 195.678 23.7189 195.484 23.4402C195.294 23.1577 195.142 22.8307 195.026 22.4592C194.909 22.0876 194.82 21.689 194.758 21.2633V20.944C194.82 20.4874 194.909 20.0694 195.026 19.6901C195.142 19.307 195.294 18.9761 195.484 18.6975C195.678 18.4149 195.914 18.1963 196.192 18.0415C196.475 17.8867 196.806 17.8093 197.185 17.8093C197.584 17.8093 197.934 17.8847 198.236 18.0357C198.541 18.1866 198.797 18.4033 199.002 18.6859C199.211 18.9684 199.368 19.3051 199.472 19.6959C199.581 20.0868 199.635 20.5203 199.635 20.9963ZM197.957 21.1182V20.9963C197.957 20.7293 197.934 20.4835 197.887 20.259C197.845 20.0307 197.775 19.8314 197.678 19.6611C197.586 19.4908 197.462 19.3592 197.307 19.2664C197.156 19.1696 196.972 19.1212 196.755 19.1212C196.527 19.1212 196.332 19.158 196.169 19.2315C196.01 19.3051 195.881 19.4115 195.78 19.5508C195.68 19.6901 195.604 19.8565 195.554 20.0501C195.503 20.2436 195.473 20.4622 195.461 20.706V21.5129C195.48 21.7993 195.534 22.0567 195.623 22.285C195.712 22.5095 195.85 22.6875 196.036 22.8191C196.221 22.9507 196.465 23.0165 196.767 23.0165C196.988 23.0165 197.173 22.9681 197.324 22.8713C197.475 22.7707 197.597 22.6333 197.69 22.4592C197.787 22.285 197.855 22.0838 197.893 21.8554C197.936 21.6271 197.957 21.3814 197.957 21.1182ZM202.439 15.2899V24.2065H200.761V15.2899H202.439ZM203.553 21.1298V21.0079C203.553 20.5474 203.619 20.1236 203.751 19.7366C203.882 19.3457 204.074 19.0071 204.325 18.7207C204.577 18.4343 204.886 18.2118 205.254 18.0531C205.622 17.8906 206.044 17.8093 206.52 17.8093C206.996 17.8093 207.419 17.8906 207.791 18.0531C208.162 18.2118 208.474 18.4343 208.726 18.7207C208.981 19.0071 209.175 19.3457 209.306 19.7366C209.438 20.1236 209.503 20.5474 209.503 21.0079V21.1298C209.503 21.5865 209.438 22.0102 209.306 22.4011C209.175 22.7881 208.981 23.1268 208.726 23.417C208.474 23.7034 208.164 23.9259 207.797 24.0846C207.429 24.2433 207.007 24.3226 206.531 24.3226C206.055 24.3226 205.631 24.2433 205.26 24.0846C204.892 23.9259 204.581 23.7034 204.325 23.417C204.074 23.1268 203.882 22.7881 203.751 22.4011C203.619 22.0102 203.553 21.5865 203.553 21.1298ZM205.225 21.0079V21.1298C205.225 21.393 205.248 21.6387 205.295 21.8671C205.341 22.0954 205.415 22.2966 205.515 22.4708C205.62 22.6411 205.755 22.7746 205.922 22.8713C206.088 22.9681 206.291 23.0165 206.531 23.0165C206.763 23.0165 206.963 22.9681 207.129 22.8713C207.296 22.7746 207.429 22.6411 207.53 22.4708C207.63 22.2966 207.704 22.0954 207.75 21.8671C207.801 21.6387 207.826 21.393 207.826 21.1298V21.0079C207.826 20.7525 207.801 20.5125 207.75 20.2881C207.704 20.0597 207.628 19.8585 207.524 19.6843C207.423 19.5063 207.29 19.367 207.123 19.2664C206.957 19.1657 206.756 19.1154 206.52 19.1154C206.284 19.1154 206.082 19.1657 205.916 19.2664C205.753 19.367 205.62 19.5063 205.515 19.6843C205.415 19.8585 205.341 20.0597 205.295 20.2881C205.248 20.5125 205.225 20.7525 205.225 21.0079ZM212.203 19.2954V24.2065H210.531V17.9254H212.104L212.203 19.2954ZM214.095 17.8847L214.066 19.4347C213.985 19.4231 213.886 19.4134 213.77 19.4057C213.658 19.3941 213.555 19.3883 213.463 19.3883C213.226 19.3883 213.021 19.4192 212.847 19.4812C212.677 19.5392 212.534 19.6263 212.418 19.7424C212.305 19.8585 212.22 19.9997 212.162 20.1662C212.108 20.3326 212.077 20.5222 212.069 20.7351L211.733 20.6306C211.733 20.2242 211.773 19.8507 211.855 19.5102C211.936 19.1657 212.054 18.8658 212.209 18.6104C212.367 18.355 212.561 18.1576 212.789 18.0183C213.017 17.8789 213.279 17.8093 213.573 17.8093C213.666 17.8093 213.761 17.817 213.857 17.8325C213.954 17.8441 214.033 17.8615 214.095 17.8847ZM217.66 24.3226C217.172 24.3226 216.735 24.2452 216.348 24.0904C215.961 23.9317 215.632 23.7131 215.361 23.4344C215.094 23.1558 214.889 22.8326 214.745 22.465C214.602 22.0935 214.531 21.6987 214.531 21.2807V21.0485C214.531 20.5725 214.598 20.1371 214.734 19.7424C214.869 19.3476 215.063 19.0051 215.314 18.7149C215.57 18.4246 215.879 18.2021 216.243 18.0473C216.607 17.8886 217.017 17.8093 217.474 17.8093C217.919 17.8093 218.314 17.8828 218.658 18.0299C219.003 18.1769 219.291 18.3859 219.523 18.6568C219.759 18.9277 219.937 19.2528 220.057 19.6321C220.177 20.0075 220.237 20.4255 220.237 20.886V21.5826H215.245V20.468H218.594V20.3403C218.594 20.1081 218.552 19.9011 218.467 19.7192C218.385 19.5334 218.261 19.3863 218.095 19.278C217.929 19.1696 217.716 19.1154 217.456 19.1154C217.236 19.1154 217.046 19.1638 216.888 19.2606C216.729 19.3573 216.599 19.4928 216.499 19.6669C216.402 19.8411 216.328 20.0462 216.278 20.2823C216.232 20.5145 216.208 20.7699 216.208 21.0485V21.2807C216.208 21.5323 216.243 21.7645 216.313 21.9774C216.386 22.1902 216.489 22.374 216.621 22.5288C216.756 22.6836 216.919 22.8036 217.108 22.8888C217.302 22.9739 217.52 23.0165 217.764 23.0165C218.066 23.0165 218.347 22.9584 218.606 22.8423C218.869 22.7223 219.095 22.5424 219.285 22.3024L220.098 23.1848C219.966 23.3744 219.786 23.5563 219.558 23.7305C219.333 23.9046 219.063 24.0478 218.745 24.1601C218.428 24.2684 218.066 24.3226 217.66 24.3226ZM222.861 19.2954V24.2065H221.189V17.9254H222.762L222.861 19.2954ZM224.753 17.8847L224.724 19.4347C224.643 19.4231 224.544 19.4134 224.428 19.4057C224.316 19.3941 224.214 19.3883 224.121 19.3883C223.885 19.3883 223.68 19.4192 223.505 19.4812C223.335 19.5392 223.192 19.6263 223.076 19.7424C222.964 19.8585 222.878 19.9997 222.82 20.1662C222.766 20.3326 222.735 20.5222 222.727 20.7351L222.391 20.6306C222.391 20.2242 222.431 19.8507 222.513 19.5102C222.594 19.1657 222.712 18.8658 222.867 18.6104C223.025 18.355 223.219 18.1576 223.447 18.0183C223.676 17.8789 223.937 17.8093 224.231 17.8093C224.324 17.8093 224.419 17.817 224.515 17.8325C224.612 17.8441 224.692 17.8615 224.753 17.8847Z" fill="#F9E757"/>
</svg>
