<svg width="264" height="121" viewBox="0 0 264 121" fill="none" xmlns="http://www.w3.org/2000/svg">
<path fill-rule="evenodd" clip-rule="evenodd" d="M277.903 151.548C277.903 158.114 272.58 163.437 266.014 163.437H-2.97164C-9.53768 163.437 -14.8605 158.114 -14.8605 151.548L-14.8605 45.2913C-14.8605 38.7252 -9.53768 33.4024 -2.97164 33.4024H113.002C116.945 33.4024 120.632 31.4476 122.844 28.1838L138.042 5.76048C140.254 2.49666 143.94 0.541885 147.883 0.541885H263.811C270.377 0.541885 275.7 5.86471 275.7 12.4308V32.3011C275.7 32.9093 276.193 33.4024 276.802 33.4024V33.4024C277.41 33.4024 277.903 33.8955 277.903 34.5037V151.548Z" fill="#047C3F"/>
<path d="M248.042 12.0332C247.916 11.8885 247.718 11.8226 247.501 11.8687L231.952 16.0281C231.77 16.084 231.631 16.2255 231.582 16.4098C231.536 16.5908 231.592 16.7849 231.724 16.9165L233.955 19.141L230.658 20.0262C230.476 20.0788 230.338 20.2236 230.291 20.4079C230.245 20.5889 230.301 20.783 230.433 20.9147L239.081 29.5295C239.183 29.6315 239.322 29.6875 239.46 29.6875C239.503 29.6875 239.549 29.6809 239.592 29.671C239.774 29.625 239.919 29.4835 239.979 29.2893L240.853 26.0184L243.098 28.2594C243.2 28.3581 243.335 28.414 243.474 28.414C243.517 28.414 243.563 28.4074 243.606 28.3976C243.791 28.3515 243.933 28.2133 243.992 28.0191L248.154 12.5268C248.204 12.3557 248.161 12.1682 248.042 12.0332V12.0332ZM239.279 28.4798L231.486 20.7172L234.678 19.8617L240.13 25.2978L239.279 28.4798V28.4798ZM243.296 27.2064L241.117 25.0345L243.134 17.5286C243.193 17.341 243.14 17.137 243.002 16.9988C242.863 16.8606 242.662 16.808 242.484 16.8606L234.942 18.8778L232.777 16.7191L247.144 12.8756L243.296 27.2064Z" fill="#F9E757"/>
<path d="M163.576 15.8092V24.3405H161.824V15.8092H163.576ZM166.201 15.8092V17.1862H159.24V15.8092H166.201ZM168.375 19.3834V24.3405H166.688V18.0006H168.276L168.375 19.3834ZM170.285 17.9596L170.256 19.524C170.174 19.5123 170.074 19.5026 169.957 19.4948C169.844 19.483 169.74 19.4772 169.647 19.4772C169.408 19.4772 169.201 19.5084 169.026 19.5709C168.854 19.6295 168.709 19.7174 168.592 19.8346C168.479 19.9518 168.393 20.0944 168.334 20.2623C168.279 20.4303 168.248 20.6217 168.24 20.8365L167.901 20.7311C167.901 20.3209 167.942 19.944 168.024 19.6002C168.106 19.2526 168.225 18.9498 168.381 18.692C168.541 18.4342 168.737 18.235 168.967 18.0944C169.197 17.9537 169.461 17.8834 169.758 17.8834C169.852 17.8834 169.947 17.8912 170.045 17.9069C170.143 17.9186 170.223 17.9362 170.285 17.9596ZM172.863 18.0006V24.3405H171.17V18.0006H172.863ZM171.065 16.3483C171.065 16.1022 171.151 15.899 171.322 15.7389C171.494 15.5787 171.725 15.4987 172.014 15.4987C172.299 15.4987 172.528 15.5787 172.699 15.7389C172.875 15.899 172.963 16.1022 172.963 16.3483C172.963 16.5944 172.875 16.7975 172.699 16.9576C172.528 17.1178 172.299 17.1979 172.014 17.1979C171.725 17.1979 171.494 17.1178 171.322 16.9576C171.151 16.7975 171.065 16.5944 171.065 16.3483ZM176.039 15.3405V24.3405H174.346V15.3405H176.039ZM179.08 15.3405V24.3405H177.393V15.3405H179.08ZM178.84 20.9479H178.377C178.381 20.5065 178.44 20.1002 178.553 19.7291C178.666 19.3541 178.828 19.0299 179.039 18.7565C179.25 18.4791 179.502 18.2643 179.795 18.1119C180.092 17.9596 180.42 17.8834 180.779 17.8834C181.092 17.8834 181.375 17.9283 181.629 18.0182C181.887 18.1041 182.108 18.2448 182.291 18.4401C182.479 18.6315 182.623 18.8834 182.725 19.1959C182.826 19.5084 182.877 19.8873 182.877 20.3326V24.3405H181.178V20.3209C181.178 20.0397 181.137 19.819 181.055 19.6588C180.977 19.4948 180.862 19.3795 180.709 19.3131C180.561 19.2428 180.377 19.2076 180.158 19.2076C179.916 19.2076 179.709 19.2526 179.537 19.3424C179.369 19.4323 179.235 19.5573 179.133 19.7174C179.031 19.8737 178.957 20.0573 178.91 20.2682C178.863 20.4791 178.84 20.7057 178.84 20.9479ZM187.582 22.9108V20.0865C187.582 19.8834 187.549 19.7096 187.483 19.5651C187.416 19.4166 187.313 19.3014 187.172 19.2194C187.035 19.1373 186.858 19.0963 186.639 19.0963C186.451 19.0963 186.289 19.1295 186.153 19.1959C186.016 19.2584 185.91 19.3502 185.836 19.4713C185.762 19.5885 185.725 19.7272 185.725 19.8873H184.037C184.037 19.6178 184.1 19.3619 184.225 19.1198C184.35 18.8776 184.531 18.6647 184.77 18.4811C185.008 18.2936 185.291 18.1471 185.619 18.0416C185.951 17.9362 186.322 17.8834 186.733 17.8834C187.225 17.8834 187.662 17.9655 188.045 18.1295C188.428 18.2936 188.729 18.5397 188.947 18.8678C189.17 19.1959 189.281 19.6061 189.281 20.0983V22.8112C189.281 23.1588 189.303 23.444 189.346 23.6666C189.389 23.8854 189.451 24.0768 189.533 24.2408V24.3405H187.828C187.746 24.1686 187.684 23.9537 187.641 23.6959C187.602 23.4342 187.582 23.1725 187.582 22.9108ZM187.805 20.4791L187.817 21.4342H186.873C186.651 21.4342 186.457 21.4596 186.293 21.5104C186.129 21.5612 185.994 21.6334 185.889 21.7272C185.783 21.817 185.705 21.9225 185.654 22.0436C185.608 22.1647 185.584 22.2975 185.584 22.442C185.584 22.5865 185.617 22.7174 185.684 22.8346C185.75 22.9479 185.846 23.0377 185.971 23.1041C186.096 23.1666 186.242 23.1979 186.41 23.1979C186.664 23.1979 186.885 23.1471 187.072 23.0455C187.26 22.944 187.404 22.819 187.506 22.6705C187.612 22.5221 187.666 22.3815 187.67 22.2487L188.115 22.9635C188.053 23.1237 187.967 23.2897 187.858 23.4615C187.752 23.6334 187.617 23.7955 187.453 23.9479C187.289 24.0963 187.092 24.2194 186.862 24.317C186.631 24.4108 186.358 24.4576 186.041 24.4576C185.639 24.4576 185.274 24.3776 184.945 24.2174C184.621 24.0533 184.363 23.8287 184.172 23.5436C183.985 23.2545 183.891 22.9264 183.891 22.5592C183.891 22.2272 183.953 21.9323 184.078 21.6744C184.203 21.4166 184.387 21.1998 184.629 21.024C184.875 20.8444 185.182 20.7096 185.549 20.6198C185.916 20.526 186.342 20.4791 186.826 20.4791H187.805ZM195.545 15.8092V24.3405H193.793V15.8092H195.545ZM201.1 18.0006H202.629V24.1295C202.629 24.7076 202.5 25.1979 202.242 25.6002C201.988 26.0065 201.633 26.3131 201.176 26.5201C200.719 26.7311 200.188 26.8365 199.582 26.8365C199.317 26.8365 199.035 26.8014 198.738 26.7311C198.445 26.6608 198.164 26.5514 197.895 26.403C197.629 26.2545 197.406 26.067 197.227 25.8405L197.971 24.8444C198.166 25.0709 198.393 25.2467 198.651 25.3717C198.908 25.5006 199.194 25.5651 199.506 25.5651C199.811 25.5651 200.069 25.5084 200.279 25.3951C200.49 25.2858 200.653 25.1237 200.766 24.9088C200.879 24.6979 200.936 24.442 200.936 24.1412V19.4655L201.1 18.0006ZM196.834 21.2467V21.1237C196.834 20.6393 196.893 20.1998 197.01 19.8053C197.131 19.4069 197.301 19.0651 197.52 18.7799C197.742 18.4948 198.012 18.274 198.328 18.1178C198.645 17.9615 199.002 17.8834 199.401 17.8834C199.822 17.8834 200.176 17.9615 200.461 18.1178C200.746 18.274 200.981 18.4967 201.164 18.7858C201.348 19.0709 201.49 19.4088 201.592 19.7994C201.697 20.1862 201.779 20.61 201.838 21.0709V21.3405C201.779 21.7819 201.692 22.192 201.574 22.5709C201.457 22.9498 201.303 23.2819 201.112 23.567C200.92 23.8483 200.682 24.067 200.397 24.2233C200.115 24.3795 199.779 24.4576 199.389 24.4576C198.998 24.4576 198.645 24.3776 198.328 24.2174C198.016 24.0573 197.748 23.8326 197.526 23.5436C197.303 23.2545 197.131 22.9147 197.01 22.524C196.893 22.1334 196.834 21.7076 196.834 21.2467ZM198.522 21.1237V21.2467C198.522 21.5084 198.547 21.7526 198.598 21.9791C198.649 22.2057 198.727 22.4069 198.832 22.5826C198.942 22.7545 199.076 22.8893 199.237 22.9869C199.401 23.0807 199.594 23.1276 199.817 23.1276C200.125 23.1276 200.377 23.0631 200.572 22.9342C200.768 22.8014 200.914 22.6198 201.012 22.3893C201.11 22.1588 201.166 21.8932 201.182 21.5924V20.8248C201.174 20.5787 201.141 20.358 201.082 20.1627C201.024 19.9635 200.942 19.7936 200.836 19.653C200.731 19.5123 200.594 19.403 200.426 19.3248C200.258 19.2467 200.059 19.2076 199.828 19.2076C199.606 19.2076 199.412 19.2584 199.248 19.36C199.088 19.4576 198.953 19.5924 198.844 19.7643C198.738 19.9362 198.658 20.1393 198.604 20.3737C198.549 20.6041 198.522 20.8541 198.522 21.1237ZM205.594 19.3541V24.3405H203.906V18.0006H205.488L205.594 19.3541ZM205.348 20.9479H204.891C204.891 20.4791 204.951 20.0573 205.072 19.6823C205.194 19.3033 205.363 18.9811 205.582 18.7155C205.801 18.4459 206.061 18.2408 206.362 18.1002C206.666 17.9557 207.006 17.8834 207.381 17.8834C207.678 17.8834 207.949 17.9264 208.195 18.0123C208.442 18.0983 208.653 18.235 208.828 18.4225C209.008 18.61 209.145 18.858 209.238 19.1666C209.336 19.4752 209.385 19.8522 209.385 20.2975V24.3405H207.686V20.2916C207.686 20.0104 207.647 19.7916 207.569 19.6354C207.49 19.4791 207.375 19.3698 207.223 19.3073C207.074 19.2408 206.891 19.2076 206.672 19.2076C206.445 19.2076 206.248 19.2526 206.08 19.3424C205.916 19.4323 205.779 19.5573 205.67 19.7174C205.565 19.8737 205.485 20.0573 205.43 20.2682C205.375 20.4791 205.348 20.7057 205.348 20.9479ZM212.449 18.0006V24.3405H210.756V18.0006H212.449ZM210.651 16.3483C210.651 16.1022 210.737 15.899 210.908 15.7389C211.08 15.5787 211.311 15.4987 211.6 15.4987C211.885 15.4987 212.113 15.5787 212.285 15.7389C212.461 15.899 212.549 16.1022 212.549 16.3483C212.549 16.5944 212.461 16.7975 212.285 16.9576C212.113 17.1178 211.885 17.1979 211.6 17.1979C211.311 17.1979 211.08 17.1178 210.908 16.9576C210.737 16.7975 210.651 16.5944 210.651 16.3483ZM216.949 18.0006V19.1959H213.258V18.0006H216.949ZM214.172 16.4362H215.86V22.4303C215.86 22.6139 215.883 22.7545 215.93 22.8522C215.981 22.9498 216.055 23.0182 216.153 23.0573C216.25 23.0924 216.373 23.11 216.522 23.11C216.627 23.11 216.721 23.1061 216.803 23.0983C216.889 23.0865 216.961 23.0748 217.02 23.0631L217.026 24.3053C216.881 24.3522 216.725 24.3893 216.557 24.4166C216.389 24.444 216.203 24.4576 216 24.4576C215.629 24.4576 215.305 24.3971 215.028 24.276C214.754 24.151 214.543 23.9518 214.395 23.6783C214.246 23.4049 214.172 23.0455 214.172 22.6002V16.4362ZM220.828 24.4576C220.336 24.4576 219.895 24.3795 219.504 24.2233C219.113 24.0631 218.781 23.8424 218.508 23.5612C218.238 23.2799 218.031 22.9537 217.887 22.5826C217.742 22.2076 217.67 21.8092 217.67 21.3873V21.153C217.67 20.6725 217.738 20.233 217.875 19.8346C218.012 19.4362 218.207 19.0905 218.461 18.7975C218.719 18.5045 219.031 18.2799 219.399 18.1237C219.766 17.9635 220.18 17.8834 220.641 17.8834C221.09 17.8834 221.488 17.9576 221.836 18.1061C222.184 18.2545 222.475 18.4655 222.709 18.7389C222.947 19.0123 223.127 19.3405 223.248 19.7233C223.369 20.1022 223.43 20.524 223.43 20.9889V21.692H218.391V20.567H221.772V20.4381C221.772 20.2037 221.729 19.9948 221.643 19.8112C221.561 19.6237 221.436 19.4752 221.268 19.3658C221.1 19.2565 220.885 19.2018 220.623 19.2018C220.401 19.2018 220.209 19.2506 220.049 19.3483C219.889 19.4459 219.758 19.5826 219.656 19.7584C219.559 19.9342 219.485 20.1412 219.434 20.3795C219.387 20.6139 219.363 20.8717 219.363 21.153V21.3873C219.363 21.6412 219.399 21.8756 219.469 22.0905C219.543 22.3053 219.647 22.4908 219.779 22.6471C219.916 22.8033 220.08 22.9244 220.272 23.0104C220.467 23.0963 220.688 23.1393 220.934 23.1393C221.238 23.1393 221.522 23.0807 221.783 22.9635C222.049 22.8424 222.278 22.6608 222.469 22.4186L223.289 23.3092C223.156 23.5006 222.975 23.6842 222.744 23.86C222.518 24.0358 222.244 24.1803 221.924 24.2936C221.604 24.403 221.238 24.4576 220.828 24.4576Z" fill="#F9E757"/>
</svg>
