<svg width="264" height="121" viewBox="0 0 264 121" fill="none" xmlns="http://www.w3.org/2000/svg">
<path fill-rule="evenodd" clip-rule="evenodd" d="M277.903 151.548C277.903 158.114 272.58 163.437 266.014 163.437H-2.97164C-9.53768 163.437 -14.8605 158.114 -14.8605 151.548L-14.8605 45.2913C-14.8605 38.7252 -9.53768 33.4024 -2.97164 33.4024H113.002C116.945 33.4024 120.632 31.4476 122.844 28.1838L138.042 5.76048C140.254 2.49666 143.94 0.541885 147.883 0.541885H263.811C270.377 0.541885 275.7 5.86471 275.7 12.4308V32.3011C275.7 32.9093 276.193 33.4024 276.802 33.4024V33.4024C277.41 33.4024 277.903 33.8955 277.903 34.5037V151.548Z" fill="#047C3F"/>
<path d="M248.042 12.0333C247.916 11.8885 247.718 11.8227 247.501 11.8687L231.952 16.0281C231.77 16.084 231.631 16.2255 231.582 16.4098C231.536 16.5908 231.592 16.7849 231.724 16.9166L233.955 19.141L230.658 20.0262C230.476 20.0789 230.338 20.2237 230.291 20.4079C230.245 20.5889 230.301 20.7831 230.433 20.9147L239.081 29.5296C239.183 29.6316 239.322 29.6875 239.46 29.6875C239.503 29.6875 239.549 29.6809 239.592 29.6711C239.774 29.625 239.919 29.4835 239.979 29.2894L240.853 26.0185L243.098 28.2594C243.2 28.3581 243.335 28.414 243.474 28.414C243.517 28.414 243.563 28.4075 243.606 28.3976C243.791 28.3515 243.933 28.2133 243.992 28.0192L248.154 12.5269C248.204 12.3558 248.161 12.1682 248.042 12.0333V12.0333ZM239.279 28.4799L231.486 20.7173L234.678 19.8617L240.13 25.2978L239.279 28.4799V28.4799ZM243.296 27.2064L241.117 25.0346L243.134 17.5286C243.193 17.3411 243.14 17.137 243.002 16.9988C242.863 16.8606 242.662 16.808 242.484 16.8606L234.942 18.8778L232.777 16.7191L247.144 12.8757L243.296 27.2064Z" fill="#F9E757"/>
<path d="M160.576 15.8092V24.3405H158.824V15.8092H160.576ZM163.201 15.8092V17.1862H156.24V15.8092H163.201ZM165.375 19.3835V24.3405H163.688V18.0006H165.276L165.375 19.3835ZM167.285 17.9596L167.256 19.5241C167.174 19.5124 167.074 19.5026 166.957 19.4948C166.844 19.4831 166.74 19.4772 166.647 19.4772C166.408 19.4772 166.201 19.5085 166.026 19.571C165.854 19.6295 165.709 19.7174 165.592 19.8346C165.479 19.9518 165.393 20.0944 165.334 20.2624C165.279 20.4303 165.248 20.6217 165.24 20.8366L164.901 20.7311C164.901 20.321 164.942 19.944 165.024 19.6003C165.106 19.2526 165.225 18.9499 165.381 18.692C165.541 18.4342 165.737 18.235 165.967 18.0944C166.197 17.9538 166.461 17.8835 166.758 17.8835C166.852 17.8835 166.947 17.8913 167.045 17.9069C167.143 17.9186 167.223 17.9362 167.285 17.9596ZM169.863 18.0006V24.3405H168.17V18.0006H169.863ZM168.065 16.3483C168.065 16.1022 168.151 15.8991 168.322 15.7389C168.494 15.5788 168.725 15.4987 169.014 15.4987C169.299 15.4987 169.528 15.5788 169.699 15.7389C169.875 15.8991 169.963 16.1022 169.963 16.3483C169.963 16.5944 169.875 16.7975 169.699 16.9577C169.528 17.1178 169.299 17.1979 169.014 17.1979C168.725 17.1979 168.494 17.1178 168.322 16.9577C168.151 16.7975 168.065 16.5944 168.065 16.3483ZM173.039 15.3405V24.3405H171.346V15.3405H173.039ZM176.08 15.3405V24.3405H174.393V15.3405H176.08ZM175.84 20.9479H175.377C175.381 20.5065 175.44 20.1003 175.553 19.7292C175.666 19.3542 175.828 19.0299 176.039 18.7565C176.25 18.4792 176.502 18.2643 176.795 18.112C177.092 17.9596 177.42 17.8835 177.779 17.8835C178.092 17.8835 178.375 17.9284 178.629 18.0182C178.887 18.1042 179.108 18.2448 179.291 18.4401C179.479 18.6315 179.623 18.8835 179.725 19.196C179.826 19.5085 179.877 19.8874 179.877 20.3327V24.3405H178.178V20.321C178.178 20.0397 178.137 19.819 178.055 19.6588C177.977 19.4948 177.862 19.3795 177.709 19.3131C177.561 19.2428 177.377 19.2077 177.158 19.2077C176.916 19.2077 176.709 19.2526 176.537 19.3424C176.369 19.4323 176.235 19.5573 176.133 19.7174C176.031 19.8737 175.957 20.0573 175.91 20.2682C175.863 20.4792 175.84 20.7057 175.84 20.9479ZM184.582 22.9108V20.0866C184.582 19.8835 184.549 19.7096 184.483 19.5651C184.416 19.4167 184.313 19.3014 184.172 19.2194C184.035 19.1374 183.858 19.0963 183.639 19.0963C183.451 19.0963 183.289 19.1295 183.153 19.196C183.016 19.2585 182.91 19.3503 182.836 19.4713C182.762 19.5885 182.725 19.7272 182.725 19.8874H181.037C181.037 19.6178 181.1 19.362 181.225 19.1198C181.35 18.8776 181.531 18.6647 181.77 18.4811C182.008 18.2936 182.291 18.1471 182.619 18.0417C182.951 17.9362 183.322 17.8835 183.733 17.8835C184.225 17.8835 184.662 17.9655 185.045 18.1295C185.428 18.2936 185.729 18.5397 185.947 18.8678C186.17 19.196 186.281 19.6061 186.281 20.0983V22.8112C186.281 23.1588 186.303 23.444 186.346 23.6667C186.389 23.8854 186.451 24.0768 186.533 24.2409V24.3405H184.828C184.746 24.1686 184.684 23.9538 184.641 23.696C184.602 23.4342 184.582 23.1725 184.582 22.9108ZM184.805 20.4792L184.817 21.4342H183.873C183.651 21.4342 183.457 21.4596 183.293 21.5104C183.129 21.5612 182.994 21.6335 182.889 21.7272C182.783 21.817 182.705 21.9225 182.654 22.0436C182.608 22.1647 182.584 22.2975 182.584 22.442C182.584 22.5866 182.617 22.7174 182.684 22.8346C182.75 22.9479 182.846 23.0378 182.971 23.1042C183.096 23.1667 183.242 23.1979 183.41 23.1979C183.664 23.1979 183.885 23.1471 184.072 23.0456C184.26 22.944 184.404 22.819 184.506 22.6706C184.612 22.5221 184.666 22.3815 184.67 22.2487L185.115 22.9635C185.053 23.1237 184.967 23.2897 184.858 23.4616C184.752 23.6335 184.617 23.7956 184.453 23.9479C184.289 24.0963 184.092 24.2194 183.862 24.317C183.631 24.4108 183.358 24.4577 183.041 24.4577C182.639 24.4577 182.274 24.3776 181.945 24.2174C181.621 24.0534 181.363 23.8288 181.172 23.5436C180.985 23.2545 180.891 22.9264 180.891 22.5592C180.891 22.2272 180.953 21.9323 181.078 21.6745C181.203 21.4167 181.387 21.1999 181.629 21.0241C181.875 20.8444 182.182 20.7096 182.549 20.6198C182.916 20.526 183.342 20.4792 183.826 20.4792H184.805ZM197.438 19.8815V23.2624C197.305 23.4225 197.1 23.5963 196.822 23.7838C196.545 23.9674 196.188 24.1256 195.75 24.2585C195.313 24.3913 194.783 24.4577 194.162 24.4577C193.612 24.4577 193.11 24.3678 192.656 24.1881C192.203 24.0045 191.813 23.737 191.485 23.3854C191.16 23.0338 190.91 22.6042 190.735 22.0963C190.559 21.5846 190.471 21.0006 190.471 20.3444V19.8112C190.471 19.1549 190.555 18.571 190.723 18.0592C190.895 17.5475 191.139 17.1159 191.455 16.7643C191.772 16.4128 192.149 16.1452 192.586 15.9616C193.024 15.778 193.51 15.6862 194.045 15.6862C194.787 15.6862 195.397 15.8073 195.873 16.0495C196.35 16.2878 196.713 16.6198 196.963 17.0456C197.217 17.4674 197.373 17.9518 197.432 18.4987H195.727C195.684 18.2096 195.602 17.9577 195.481 17.7428C195.36 17.528 195.186 17.36 194.959 17.2389C194.737 17.1178 194.447 17.0573 194.092 17.0573C193.799 17.0573 193.537 17.1178 193.307 17.2389C193.08 17.3561 192.889 17.5299 192.733 17.7604C192.576 17.9909 192.457 18.276 192.375 18.6159C192.293 18.9557 192.252 19.3503 192.252 19.7995V20.3444C192.252 20.7897 192.295 21.1842 192.381 21.528C192.467 21.8678 192.594 22.1549 192.762 22.3893C192.934 22.6198 193.145 22.7936 193.395 22.9108C193.645 23.028 193.936 23.0866 194.268 23.0866C194.545 23.0866 194.776 23.0631 194.959 23.0163C195.147 22.9694 195.297 22.9128 195.41 22.8463C195.528 22.776 195.617 22.7096 195.68 22.6471V21.1354H194.074V19.8815H197.438ZM198.481 21.235V21.112C198.481 20.6471 198.547 20.2194 198.68 19.8288C198.813 19.4342 199.006 19.0924 199.26 18.8034C199.514 18.5143 199.826 18.2897 200.197 18.1295C200.569 17.9655 200.994 17.8835 201.475 17.8835C201.955 17.8835 202.383 17.9655 202.758 18.1295C203.133 18.2897 203.447 18.5143 203.701 18.8034C203.959 19.0924 204.154 19.4342 204.287 19.8288C204.42 20.2194 204.487 20.6471 204.487 21.112V21.235C204.487 21.696 204.42 22.1237 204.287 22.5182C204.154 22.9088 203.959 23.2506 203.701 23.5436C203.447 23.8327 203.135 24.0573 202.764 24.2174C202.393 24.3776 201.967 24.4577 201.487 24.4577C201.006 24.4577 200.578 24.3776 200.203 24.2174C199.832 24.0573 199.518 23.8327 199.26 23.5436C199.006 23.2506 198.813 22.9088 198.68 22.5182C198.547 22.1237 198.481 21.696 198.481 21.235ZM200.168 21.112V21.235C200.168 21.5006 200.192 21.7487 200.238 21.9792C200.285 22.2096 200.36 22.4128 200.461 22.5885C200.567 22.7604 200.703 22.8952 200.871 22.9928C201.039 23.0905 201.244 23.1393 201.487 23.1393C201.721 23.1393 201.922 23.0905 202.09 22.9928C202.258 22.8952 202.393 22.7604 202.494 22.5885C202.596 22.4128 202.67 22.2096 202.717 21.9792C202.768 21.7487 202.793 21.5006 202.793 21.235V21.112C202.793 20.8542 202.768 20.612 202.717 20.3854C202.67 20.1549 202.594 19.9518 202.488 19.776C202.387 19.5963 202.252 19.4557 202.084 19.3542C201.916 19.2526 201.713 19.2018 201.475 19.2018C201.237 19.2018 201.033 19.2526 200.865 19.3542C200.701 19.4557 200.567 19.5963 200.461 19.776C200.36 19.9518 200.285 20.1549 200.238 20.3854C200.192 20.612 200.168 20.8542 200.168 21.112ZM207.305 15.3405V24.3405H205.612V15.3405H207.305ZM212.444 22.9577V15.3405H214.143V24.3405H212.613L212.444 22.9577ZM208.436 21.2467V21.1237C208.436 20.6393 208.49 20.1999 208.6 19.8053C208.709 19.4069 208.869 19.0651 209.08 18.7799C209.291 18.4948 209.551 18.2741 209.86 18.1178C210.168 17.9616 210.52 17.8835 210.914 17.8835C211.285 17.8835 211.61 17.9616 211.887 18.1178C212.168 18.2741 212.406 18.4967 212.602 18.7858C212.801 19.071 212.961 19.4088 213.082 19.7995C213.203 20.1862 213.291 20.61 213.346 21.071V21.3405C213.291 21.7819 213.203 22.192 213.082 22.571C212.961 22.9499 212.801 23.2819 212.602 23.567C212.406 23.8483 212.168 24.067 211.887 24.2233C211.606 24.3795 211.278 24.4577 210.903 24.4577C210.508 24.4577 210.156 24.3776 209.848 24.2174C209.543 24.0573 209.285 23.8327 209.074 23.5436C208.867 23.2545 208.709 22.9147 208.6 22.5241C208.49 22.1335 208.436 21.7077 208.436 21.2467ZM210.123 21.1237V21.2467C210.123 21.5085 210.143 21.7526 210.182 21.9792C210.225 22.2057 210.293 22.4069 210.387 22.5827C210.485 22.7545 210.61 22.8893 210.762 22.987C210.918 23.0807 211.108 23.1276 211.33 23.1276C211.619 23.1276 211.858 23.0631 212.045 22.9342C212.233 22.8014 212.375 22.6198 212.473 22.3893C212.574 22.1588 212.633 21.8932 212.649 21.5924V20.8249C212.637 20.5788 212.602 20.3581 212.543 20.1628C212.488 19.9635 212.406 19.7936 212.297 19.653C212.192 19.5124 212.059 19.403 211.899 19.3249C211.742 19.2467 211.557 19.2077 211.342 19.2077C211.123 19.2077 210.936 19.2585 210.779 19.36C210.623 19.4577 210.496 19.5924 210.399 19.7643C210.305 19.9362 210.235 20.1393 210.188 20.3737C210.145 20.6042 210.123 20.8542 210.123 21.1237ZM223.969 19.5885V21.0592H218.121V19.5885H223.969ZM221.848 17.2741V23.485H220.248V17.2741H221.848Z" fill="#F9E757"/>
</svg>
